<?xml version="1.0" standalone="no"?><!DOCTYPE svg PUBLIC "-//W3C//DTD SVG 1.1//EN" "http://www.w3.org/Graphics/SVG/1.1/DTD/svg11.dtd"><svg t="1769861606649" class="icon" viewBox="0 0 1024 1024" version="1.1" xmlns="http://www.w3.org/2000/svg" p-id="1602" xmlns:xlink="http://www.w3.org/1999/xlink" width="200" height="200"><path d="M34.695529 540.672a33.852235 33.852235 0 0 1-22.949647-58.849882l448.752942-412.491294a33.972706 33.972706 0 0 1 45.959529 0l446.162823 412.611764a33.912471 33.912471 0 0 1-46.019764 49.694118L483.388235 140.348235 57.645176 531.696941a33.731765 33.731765 0 0 1-22.949647 8.975059z" fill="#2c2c2c" p-id="1603"></path><path d="M789.383529 1012.856471H177.453176a79.149176 79.149176 0 0 1-79.028705-79.028706v-367.435294a33.852235 33.852235 0 1 1 67.764705 0v367.435294c0 6.204235 5.059765 11.264 11.264 11.264h611.990589a11.324235 11.324235 0 0 0 11.264-11.264v-367.435294a33.852235 33.852235 0 1 1 67.764706 0v367.435294c0 43.550118-35.478588 79.028706-79.088942 79.028706z" fill="#2c2c2c" p-id="1604"></path><path d="M566.091294 1012.856471H400.745412a79.149176 79.149176 0 0 1-79.028706-79.028706v-230.159059c0-43.610353 35.418353-79.088941 79.028706-79.088941h165.345882c43.610353 0 79.088941 35.478588 79.088941 79.088941v230.098823c-0.060235 43.670588-35.418353 79.028706-79.088941 79.088942z m-165.345882-320.451765a11.264 11.264 0 0 0-11.264 11.264v230.098823c0 6.264471 4.999529 11.324235 11.264 11.324236h165.345882a11.324235 11.324235 0 0 0 11.324235-11.324236v-230.098823a11.324235 11.324235 0 0 0-11.324235-11.324235H400.745412z" fill="#2c2c2c" p-id="1605"></path></svg>