<?xml version="1.0" standalone="no"?><!DOCTYPE svg PUBLIC "-//W3C//DTD SVG 1.1//EN" "http://www.w3.org/Graphics/SVG/1.1/DTD/svg11.dtd"><svg t="1770213765619" class="icon" viewBox="0 0 1024 1024" version="1.1" xmlns="http://www.w3.org/2000/svg" p-id="7234" xmlns:xlink="http://www.w3.org/1999/xlink" width="64" height="64"><path d="M853.333 170.667v683.52c0 19.114-6.528 37.632-18.517 52.565a85.93 85.93 0 0 1-119.893 13.61L512 768 309.077 920.32c-15.104 11.947-33.792 18.347-53.077 18.347-47.147 0-85.333-37.803-85.333-84.48v-683.52c0-46.635 38.186-85.334 85.333-85.334h512c47.147 0 85.333 38.699 85.333 85.334z m-85.333 0H256v682.666c0.17 0 0.299-0.042 1.835-1.237l202.922-152.32a85.333 85.333 0 0 1 102.486 0l204.416 153.472 0.341 0.085V170.667z" p-id="7235"></path></svg>